<svg width="28" height="29" viewBox="0 0 28 29" fill="none" xmlns="http://www.w3.org/2000/svg">
<g id="phone-call-01">
<path id="Vector" d="M23.2559 23.1354C23.2559 23.1354 21.9041 24.463 21.5729 24.8523C21.0332 25.4281 20.3974 25.7001 19.5639 25.7001C19.4837 25.7001 19.3983 25.7001 19.3181 25.6947C17.7313 25.5934 16.2566 24.9749 15.1506 24.447C12.1265 22.9861 9.471 20.9119 7.26435 18.2832C5.4424 16.0917 4.2242 14.0655 3.41741 11.89C2.92051 10.5623 2.73885 9.52793 2.81899 8.55216C2.87242 7.92831 3.11286 7.4111 3.55633 6.96854L5.37828 5.15031C5.64009 4.90503 5.91792 4.77173 6.19041 4.77173C6.52702 4.77173 6.79951 4.97435 6.97049 5.14497C6.97583 5.15031 6.98118 5.15564 6.98652 5.16097C7.31244 5.4649 7.62233 5.77949 7.94825 6.11541C8.11389 6.28604 8.28486 6.45666 8.45584 6.63262L9.91447 8.08827C10.4808 8.65347 10.4808 9.17601 9.91447 9.74121C9.75953 9.89584 9.60992 10.0505 9.45497 10.1998C9.00616 10.6583 9.35873 10.3065 8.89389 10.7224C8.88321 10.733 8.87252 10.7384 8.86718 10.749C8.40768 11.2076 8.49317 11.6555 8.58934 11.9594C8.59468 11.9754 8.60003 11.9914 8.60537 12.0074C8.98472 12.9245 9.51902 13.7883 10.3312 14.8174L10.3365 14.8227C11.8112 16.6356 13.366 18.0486 15.0811 19.131C15.3001 19.2697 15.5245 19.3816 15.7382 19.4883C15.9306 19.5843 16.1123 19.6749 16.2672 19.7709C16.2886 19.7816 16.3099 19.7975 16.3313 19.8082C16.513 19.8989 16.684 19.9415 16.8603 19.9415C17.3037 19.9415 17.5816 19.6642 17.6724 19.5736L18.7197 18.5284C18.9014 18.3472 19.1899 18.1285 19.5265 18.1285C19.8578 18.1285 20.1302 18.3365 20.2959 18.5178C20.3012 18.5231 20.3012 18.5231 20.3066 18.5284L23.2505 21.4664C23.8009 22.0103 23.2559 23.1354 23.2559 23.1354Z" stroke="#616161" stroke-width="2" stroke-linecap="round" stroke-linejoin="round"/>
</g>
</svg>
